<?xml version="1.0" standalone="no"?>
<!DOCTYPE svg PUBLIC "-//W3C//DTD SVG 20010904//EN"
 "http://www.w3.org/TR/2001/REC-SVG-20010904/DTD/svg10.dtd">
<svg version="1.0" xmlns="http://www.w3.org/2000/svg"
 width="682.000000pt" height="996.000000pt" viewBox="0 0 682.000000 996.000000"
 preserveAspectRatio="xMidYMid meet">

<g transform="translate(0.000000,996.000000) scale(0.100000,-0.100000)"
fill="#000000" stroke="none">
<path d="M2775 9954 c-38 -2 -171 -8 -295 -14 -408 -19 -750 -56 -796 -85 -39
-25 -57 -180 -75 -630 -20 -512 5 -1175 52 -1347 11 -44 24 -49 194 -72 227
-31 875 -70 1085 -65 l85 2 2 -3484 c3 -3246 4 -3486 20 -3516 15 -29 15 -33
0 -57 -15 -22 -17 -57 -17 -259 0 -274 6 -301 80 -377 l49 -50 155 0 156 0 40
36 c22 20 52 61 67 92 28 57 28 58 31 293 3 205 1 237 -12 248 -20 17 -20 58
-1 91 12 22 14 507 15 3501 l0 3475 323 12 c458 17 842 50 960 83 52 14 71 58
102 241 41 244 55 444 55 783 0 388 -25 674 -77 885 -24 101 -35 116 -90 129
-160 37 -704 78 -1118 84 l-170 2 -99 -50 c-98 -49 -102 -50 -190 -50 -89 0
-93 1 -191 50 -95 48 -104 50 -185 51 -47 1 -116 0 -155 -2z"/>
</g>
</svg>
